<svg width="32" height="32" viewBox="0 0 32 32" fill="none" xmlns="http://www.w3.org/2000/svg">
<path opacity="0.8" d="M18.9089 20.3634V27.6358C18.9089 28.0215 19.0622 28.3915 19.3349 28.6642C19.6077 28.937 19.9777 29.0902 20.3634 29.0902C20.7492 29.0902 21.1191 28.937 21.3919 28.6642C21.6646 28.3915 21.8179 28.0215 21.8179 27.6358V23.8741L29.5157 31.5738C29.7886 31.8467 30.1588 32 30.5447 32C30.9307 32 31.3008 31.8467 31.5738 31.5738C31.8467 31.3008 32 30.9307 32 30.5447C32 30.1588 31.8467 29.7886 31.5738 29.5157L23.8741 21.8179H27.6358C28.0215 21.8179 28.3915 21.6646 28.6642 21.3919C28.937 21.1191 29.0902 20.7492 29.0902 20.3634C29.0902 19.9777 28.937 19.6077 28.6642 19.335C28.3915 19.0622 28.0215 18.9089 27.6358 18.9089H20.3634C19.9777 18.9089 19.6077 19.0622 19.3349 19.335C19.0622 19.6077 18.9089 19.9777 18.9089 20.3634ZM11.6366 13.0911H4.36422C3.97847 13.0911 3.60852 12.9378 3.33576 12.6651C3.06299 12.3923 2.90975 12.0223 2.90975 11.6366C2.90975 11.2508 3.06299 10.8809 3.33576 10.6081C3.60852 10.3354 3.97847 10.1821 4.36422 10.1821H8.12585L0.426242 2.48432C0.153324 2.2114 -7.60828e-09 1.84125 0 1.45528C7.60828e-09 1.06932 0.153324 0.69916 0.426242 0.426243C0.69916 0.153324 1.06932 0 1.45528 0C1.84124 0 2.2114 0.153324 2.48432 0.426243L10.1821 8.12585V4.36423C10.1821 3.97848 10.3354 3.60852 10.6081 3.33576C10.8809 3.06299 11.2508 2.90975 11.6366 2.90975C12.0223 2.90975 12.3923 3.06299 12.665 3.33576C12.9378 3.60852 13.0911 3.97848 13.0911 4.36423V11.6366C13.0911 12.0223 12.9378 12.3923 12.665 12.6651C12.3923 12.9378 12.0223 13.0911 11.6366 13.0911ZM23.8741 10.1821H27.6358C28.0215 10.1821 28.3915 10.3354 28.6642 10.6081C28.937 10.8809 29.0902 11.2508 29.0902 11.6366C29.0902 12.0223 28.937 12.3923 28.6642 12.6651C28.3915 12.9378 28.0215 13.0911 27.6358 13.0911H20.3634C19.9777 13.0911 19.6077 12.9378 19.3349 12.6651C19.0622 12.3923 18.9089 12.0223 18.9089 11.6366V4.36423C18.9089 3.97848 19.0622 3.60852 19.3349 3.33576C19.6077 3.06299 19.9777 2.90975 20.3634 2.90975C20.7492 2.90975 21.1191 3.06299 21.3919 3.33576C21.6646 3.60852 21.8179 3.97848 21.8179 4.36423V8.12585L29.5157 0.426243C29.6508 0.291107 29.8112 0.183912 29.9878 0.110779C30.1644 0.0376434 30.3536 0 30.5447 0C30.7358 0 30.9251 0.0376434 31.1016 0.110779C31.2782 0.183912 31.4386 0.291107 31.5738 0.426243C31.7089 0.561377 31.8161 0.721807 31.8892 0.898369C31.9624 1.07493 32 1.26417 32 1.45528C32 1.64639 31.9624 1.83563 31.8892 2.01219C31.8161 2.18876 31.7089 2.34919 31.5738 2.48432L23.8741 10.1821ZM11.6366 29.0902C11.2508 29.0902 10.8809 28.937 10.6081 28.6642C10.3354 28.3915 10.1821 28.0215 10.1821 27.6358V23.8741L2.48432 31.5738C2.2114 31.8467 1.84124 32 1.45528 32C1.06932 32 0.69916 31.8467 0.426242 31.5738C0.153324 31.3008 2.87566e-09 30.9307 0 30.5447C-2.87566e-09 30.1588 0.153324 29.7886 0.426242 29.5157L8.12585 21.8179H4.36422C3.97847 21.8179 3.60852 21.6646 3.33576 21.3919C3.06299 21.1191 2.90975 20.7492 2.90975 20.3634C2.90975 19.9777 3.06299 19.6077 3.33576 19.335C3.60852 19.0622 3.97847 18.9089 4.36422 18.9089H11.6366C12.0223 18.9089 12.3923 19.0622 12.665 19.335C12.9378 19.6077 13.0911 19.9777 13.0911 20.3634V27.6358C13.0911 28.0215 12.9378 28.3915 12.665 28.6642C12.3923 28.937 12.0223 29.0902 11.6366 29.0902Z" fill="white"/>
</svg>
