<svg width="31" height="36" viewBox="0 0 31 36" fill="none" xmlns="http://www.w3.org/2000/svg">
<path opacity="0.8" fill-rule="evenodd" clip-rule="evenodd" d="M14.7986 0.186291C15.0134 0.0640874 15.2547 0 15.5 0C15.7453 0 15.9866 0.0640874 16.2014 0.186291L20.0764 2.39425C20.2492 2.48604 20.4024 2.61267 20.527 2.76665C20.6515 2.92063 20.7449 3.09884 20.8015 3.29073C20.8582 3.48262 20.877 3.68429 20.8568 3.88381C20.8366 4.08333 20.7779 4.27665 20.684 4.45232C20.5902 4.62799 20.4632 4.78244 20.3105 4.90654C20.1578 5.03064 19.9825 5.12186 19.7951 5.17481C19.6076 5.22776 19.4118 5.24136 19.2192 5.21481C19.0266 5.18825 18.841 5.12208 18.6736 5.02021L15.5 3.21424L12.3264 5.02021C12.159 5.12208 11.9734 5.18825 11.7808 5.21481C11.5882 5.24136 11.3924 5.22776 11.2049 5.17481C11.0175 5.12186 10.8422 5.03064 10.6895 4.90654C10.5368 4.78244 10.4098 4.62799 10.316 4.45232C10.2221 4.27665 10.1634 4.08333 10.1432 3.88381C10.123 3.68429 10.1418 3.48262 10.1985 3.29073C10.2551 3.09884 10.3485 2.92063 10.473 2.76665C10.5976 2.61267 10.7508 2.48604 10.9236 2.39425L14.7986 0.186291ZM6.59331 6.57419C6.68545 6.74673 6.74376 6.93633 6.7649 7.13214C6.78604 7.32795 6.7696 7.52614 6.71652 7.71539C6.66345 7.90464 6.57477 8.08125 6.45556 8.23512C6.33635 8.38898 6.18894 8.5171 6.02175 8.61215L4.46206 9.50014L6.02175 10.3881C6.35935 10.5801 6.60924 10.9027 6.71642 11.2849C6.82361 11.6671 6.77933 12.0776 6.59331 12.4261C6.4073 12.7746 6.09479 13.0325 5.72453 13.1432C5.35428 13.2538 4.9566 13.2081 4.619 13.0161L2.90625 12.0401V13.5001C2.90625 13.8979 2.75315 14.2794 2.48064 14.5607C2.20813 14.842 1.83852 15 1.45312 15C1.06773 15 0.698124 14.842 0.42561 14.5607C0.153097 14.2794 3.59994e-08 13.8979 2.78779e-08 13.5001V9.50014C-5.08993e-05 9.23172 0.0696741 8.96821 0.201902 8.73709C0.334129 8.50597 0.524015 8.31571 0.75175 8.18616L4.619 5.9862C4.95635 5.79395 5.35387 5.7479 5.72411 5.85817C6.09436 5.96843 6.40701 6.22599 6.59331 6.57419ZM24.4067 6.57419C24.4988 6.40135 24.623 6.24895 24.7722 6.12572C24.9214 6.0025 25.0927 5.91086 25.2763 5.85606C25.4598 5.80125 25.6521 5.78436 25.842 5.80635C26.0319 5.82834 26.2157 5.88877 26.3829 5.9842L30.2483 8.18616C30.476 8.31571 30.6659 8.50597 30.7981 8.73709C30.9303 8.96821 31.0001 9.23172 31 9.50014V13.5001C31 13.8979 30.8469 14.2794 30.5744 14.5607C30.3019 14.842 29.9323 15 29.5469 15C29.1615 15 28.7919 14.842 28.5194 14.5607C28.2468 14.2794 28.0938 13.8979 28.0938 13.5001V12.0401L26.381 13.0161C26.2138 13.1112 26.0302 13.1713 25.8405 13.1931C25.6508 13.2149 25.4588 13.1979 25.2755 13.1432C24.9052 13.0325 24.5927 12.7746 24.4067 12.4261C24.3146 12.2535 24.2563 12.0639 24.2352 11.8681C24.2141 11.6723 24.2305 11.4742 24.2836 11.2849C24.3908 10.9027 24.6406 10.5801 24.9783 10.3881L26.5399 9.50014L24.9783 8.61215C24.8108 8.5171 24.6632 8.3889 24.5438 8.23487C24.4244 8.08085 24.3356 7.90403 24.2826 7.71455C24.2295 7.52506 24.2131 7.32663 24.2344 7.1306C24.2557 6.93458 24.3142 6.74482 24.4067 6.57219V6.57419ZM10.3521 14.5681C10.4443 14.3954 10.5686 14.2432 10.7179 14.1202C10.8672 13.9971 11.0385 13.9057 11.2221 13.8511C11.4056 13.7965 11.5978 13.7798 11.7876 13.8019C11.9775 13.824 12.1612 13.8846 12.3283 13.9801L15.5 15.786L18.6736 13.9801C18.841 13.8782 19.0266 13.812 19.2192 13.7855C19.4118 13.7589 19.6076 13.7725 19.7951 13.8255C19.9825 13.8784 20.1578 13.9696 20.3105 14.0937C20.4632 14.2178 20.5902 14.3723 20.684 14.548C20.7779 14.7236 20.8366 14.9169 20.8568 15.1165C20.877 15.316 20.8582 15.5177 20.8015 15.7095C20.7449 15.9014 20.6515 16.0796 20.527 16.2336C20.4024 16.3876 20.2492 16.5142 20.0764 16.606L16.9531 18.386V21.4999C16.9531 21.8978 16.8 22.2793 16.5275 22.5606C16.255 22.8419 15.8854 22.9999 15.5 22.9999C15.1146 22.9999 14.745 22.8419 14.4725 22.5606C14.2 22.2793 14.0469 21.8978 14.0469 21.4999V18.386L10.9236 16.606C10.7564 16.511 10.609 16.3829 10.4898 16.229C10.3706 16.0751 10.2819 15.8985 10.2289 15.7093C10.1758 15.52 10.1593 15.3218 10.1805 15.126C10.2016 14.9302 10.2599 14.7406 10.3521 14.5681ZM1.45312 21C1.83852 21 2.20813 21.158 2.48064 21.4393C2.75315 21.7206 2.90625 22.1021 2.90625 22.4999V25.6139L6.02175 27.3878C6.35935 27.5799 6.60924 27.9024 6.71642 28.2846C6.82361 28.6668 6.77933 29.0773 6.59331 29.4258C6.4073 29.7743 6.09479 30.0322 5.72453 30.1429C5.35428 30.2535 4.9566 30.2078 4.619 30.0158L0.75175 27.8138C0.524015 27.6843 0.334129 27.494 0.201902 27.2629C0.0696741 27.0318 -5.08993e-05 26.7683 2.78779e-08 26.4999V22.4999C2.78779e-08 22.1021 0.153097 21.7206 0.42561 21.4393C0.698124 21.158 1.06773 21 1.45312 21ZM29.5469 21C29.9323 21 30.3019 21.158 30.5744 21.4393C30.8469 21.7206 31 22.1021 31 22.4999V26.4999C31.0001 26.7683 30.9303 27.0318 30.7981 27.2629C30.6659 27.494 30.476 27.6843 30.2483 27.8138L26.381 30.0138C26.2136 30.1157 26.0281 30.1818 25.8354 30.2084C25.6428 30.2349 25.447 30.2214 25.2595 30.1684C25.0721 30.1155 24.8968 30.0242 24.7441 29.9001C24.5915 29.776 24.4644 29.6216 24.3706 29.4459C24.2768 29.2702 24.218 29.0769 24.1978 28.8774C24.1776 28.6779 24.1964 28.4762 24.2531 28.2843C24.3097 28.0924 24.4031 27.9142 24.5277 27.7602C24.6522 27.6063 24.8054 27.4796 24.9783 27.3878L28.0938 25.6139V22.4999C28.0938 22.1021 28.2468 21.7206 28.5194 21.4393C28.7919 21.158 29.1615 21 29.5469 21ZM15.5 28.9998C15.8854 28.9998 16.255 29.1579 16.5275 29.4392C16.8 29.7205 16.9531 30.102 16.9531 30.4998V31.9598L18.6736 30.9798C19.0099 30.8012 19.4004 30.7649 19.7621 30.8787C20.1238 30.9925 20.4284 31.2474 20.611 31.5893C20.7936 31.9311 20.8399 32.333 20.7401 32.7095C20.6402 33.086 20.4022 33.4075 20.0764 33.6057L16.2014 35.8137C15.9866 35.9359 15.7453 36 15.5 36C15.2547 36 15.0134 35.9359 14.7986 35.8137L10.9236 33.6057C10.7508 33.514 10.5976 33.3873 10.473 33.2334C10.3485 33.0794 10.2551 32.9012 10.1985 32.7093C10.1418 32.5174 10.123 32.3157 10.1432 32.1162C10.1634 31.9167 10.2221 31.7234 10.316 31.5477C10.4098 31.372 10.5368 31.2176 10.6895 31.0935C10.8422 30.9694 11.0175 30.8781 11.2049 30.8252C11.3924 30.7722 11.5882 30.7586 11.7808 30.7852C11.9734 30.8118 12.159 30.8779 12.3264 30.9798L14.0469 31.9598V30.4998C14.0469 30.102 14.2 29.7205 14.4725 29.4392C14.745 29.1579 15.1146 28.9998 15.5 28.9998Z" fill="white"/>
</svg>
