<svg width="20" height="20" viewBox="0 0 20 20" fill="none" xmlns="http://www.w3.org/2000/svg">
<path d="M10 14.0422H7.62001V17.5556C7.62102 17.9827 7.47646 18.3413 7.18633 18.6315C6.89619 18.9216 6.53705 19.0667 6.1089 19.0667H2.44446C2.01732 19.0677 1.65868 18.9231 1.36855 18.633C1.07842 18.3429 0.93335 17.9837 0.93335 17.5556C0.934357 17.1284 1.07942 16.7698 1.36855 16.4797C1.65768 16.1895 2.01631 16.0445 2.44446 16.0445H4.59779V12.4933C4.59679 12.0662 4.74135 11.7076 5.03148 11.4174C5.32161 11.1273 5.68076 10.9822 6.1089 10.9822H8.4889V7.46891C8.4879 7.04177 8.63246 6.68313 8.92259 6.393C9.21272 6.10286 9.57187 5.9578 10 5.9578H12.38V2.44447C12.379 2.01733 12.5236 1.65869 12.8137 1.36855C13.1038 1.07842 13.463 0.933355 13.8911 0.933355H17.5556C17.9827 0.932347 18.3413 1.07691 18.6315 1.36704C18.9216 1.65718 19.0667 2.01632 19.0667 2.44447C19.0677 2.87362 18.9231 3.23276 18.633 3.52189C18.3429 3.81101 17.9837 3.95558 17.5556 3.95558H15.4022V7.50668C15.4032 7.93584 15.2587 8.29498 14.9685 8.58411C14.6784 8.87323 14.3193 9.01779 13.8911 9.01779H11.5111V12.5311C11.5121 12.9583 11.3676 13.3169 11.0774 13.607C10.7873 13.8972 10.4282 14.0422 10 14.0422Z" fill="white"/>
</svg>
